<?xml version="1.0" standalone="no"?>
<!DOCTYPE svg PUBLIC "-//W3C//DTD SVG 20010904//EN"
 "http://www.w3.org/TR/2001/REC-SVG-20010904/DTD/svg10.dtd">
<svg version="1.0" xmlns="http://www.w3.org/2000/svg"
 width="172.000000pt" height="172.000000pt" viewBox="0 0 172.000000 172.000000"
 preserveAspectRatio="xMidYMid meet">
<metadata>
Created by potrace 1.14, written by Peter Selinger 2001-2017
</metadata>
<g transform="translate(0.000000,172.000000) scale(0.100000,-0.100000)"
fill="#000000" stroke="none">
<path d="M783 1519 c-281 -37 -506 -273 -525 -548 l-2 -44 97 0 c150 1 240
-26 335 -99 57 -45 130 -132 153 -185 8 -18 16 -33 19 -33 3 0 20 27 39 60 56
98 154 184 251 221 59 22 132 32 233 30 74 -1 82 2 79 30 -1 3 -3 28 -6 55
-10 104 -68 228 -147 317 -129 145 -335 222 -526 196z"/>
<path d="M255 843 c-82 -16 -161 -37 -167 -42 -9 -8 52 -127 101 -199 91 -133
215 -240 366 -319 62 -32 186 -83 202 -83 16 0 -69 120 -159 224 -95 111 -252
236 -341 273 -52 21 -40 28 20 10 156 -48 336 -187 504 -389 27 -32 52 -57 56
-56 19 7 2 167 -27 261 -41 132 -160 263 -273 302 -49 17 -232 29 -282 18z"/>
<path d="M1280 839 c-97 -12 -161 -41 -231 -104 -111 -99 -165 -233 -174 -430
-3 -65 5 -67 48 -13 122 155 301 309 427 369 55 27 143 59 160 59 3 0 -29 -19
-70 -41 -96 -52 -165 -105 -259 -199 -69 -68 -161 -181 -206 -252 -22 -36 -10
-36 71 -4 108 43 148 64 226 118 144 99 260 232 333 381 40 79 41 77 -81 101
-90 18 -178 24 -244 15z"/>
</g>
</svg>
